PathFileType	4	(X/Y/Z)	22_coords_data.trc
DataRate	CameraRate	NumFrames	NumMarkers	Units	OrigDataRate	OrigDataStartFrame	OrigNumFrames
30.0	30.0	7	21	m	30.0	43	63
Frame#	Time	THUMB_TIP	THUMB_IP	THUMB_MCP	THUMB_CMC	INDEX_TIP	INDEX_DIP	INDEX_PIP	INDEX_MCP	MIDDLE_TIP	MIDDLE_DIP	MIDDLE_PIP	MIDDLE_MCP	RING_TIP	RING_DIP	RING_PIP	RING_MCP	PINKY_TIP	PINKY_DIP	PINKY_PIP	PINKY_MCP	WRIST
X1	Y1	Z1	X2	Y2	Z2	X3	Y3	Z3	X4	Y4	Z4	X5	Y5	Z5	X6	Y6	Z6	X7	Y7	Z7	X8	Y8	Z8	X9	Y9	Z9	X10	Y10	Z10	X11	Y11	Z11	X12	Y12	Z12	X13	Y13	Z13	X14	Y14	Z14	X15	Y15	Z15	X16	Y16	Z16	X17	Y17	Z17	X18	Y18	Z18	X19	Y19	Z19	X20	Y20	Z20	X21	Y21	Z21
41	1.3999999999999937	0.5477131495743106	-0.009045903164542846	-0.140746918079277	0.5291369449102218	-0.010133388504375895	-0.12726574617496772	0.5054824524105216	-0.007937416038818257	-0.10715448839450697	0.4731707991240407	-0.017349200860531877	-0.07787539400338878	0.49931570720717233	-0.05775225156717767	-0.18895405717506203	0.5095174632912403	-0.05683007020656633	-0.17401840337821325	0.5213420591654417	-0.054975010149130255	-0.15191076855231833	0.5193919334607782	-0.04384012672786897	-0.11085169556070129	0.48391880139264076	-0.0723488323625106	-0.1833735352186136	0.4959987131775331	-0.07507815537225038	-0.17015890214850068	0.5114198332275393	-0.07681034212295434	-0.1454891203200372	0.5117058593163428	-0.06308377034595924	-0.10297268423553535	0.48170285277714586	-0.08962103951891776	-0.17309393765576753	0.49111944271288943	-0.09228939999733665	-0.15795433111070617	0.5014747978700661	-0.09257236236925037	-0.13530777439970001	0.4994366020115849	-0.07693543740481418	-0.09807803938453946	0.4858981694269049	-0.11909192375747352	-0.15622699684725197	0.48565659493839286	-0.11171031041493612	-0.1407850595909433	0.4858027616027413	-0.10198920184965041	-0.1221761718603947	0.48177046132212686	-0.08138480016241051	-0.09284900635539195	0.462283081001861	-0.023011742144276925	-0.051989820119430985
42	1.4333333333333271	0.5463111753171953	-0.011162197863526346	-0.14251074302437924	0.5280751904822999	-0.011809351527999112	-0.12854542708681366	0.5048609459614698	-0.009093227015132432	-0.10798961236304949	0.47297634784553455	-0.01798887855676179	-0.0780876093091536	0.5021928581763843	-0.06132747279338785	-0.1891252304646544	0.5115866472009307	-0.05962164140734122	-0.1737354004771371	0.522513887553449	-0.05680686194402346	-0.15127026598274376	0.5193884358614673	-0.044451993802160805	-0.11063499953944012	0.4859293999835108	-0.0760763909550013	-0.18324239622423788	0.4976083752084127	-0.07798284857520976	-0.16953229202921158	0.5124635230690862	-0.07856763306095377	-0.14446454065134032	0.511895718290641	-0.06361019475556895	-0.10236821589401518	0.4831938736888072	-0.09277439412751604	-0.17226192809842045	0.4923421414751227	-0.09462034664544011	-0.15683786716067016	0.502316512786044	-0.09394707139401554	-0.1340291276867823	0.49974825759792485	-0.07745938844969857	-0.09720140429235585	0.4866517413047484	-0.12063700289023466	-0.1546622267424112	0.4863032776709614	-0.11301221765116354	-0.13934095972058924	0.4863465323024777	-0.10301193787698465	-0.12088006720492245	0.4820695529102613	-0.08190669938004214	-0.0919463531974582	0.462283081001861	-0.023011742144276925	-0.051989820119430985
43	1.4666666666666603	0.5450089734110697	-0.01291256967198201	-0.1440549715106382	0.5271126935580929	-0.013273177885262055	-0.12964687902271846	0.5042946632387767	-0.01016151865016457	-0.10870708272114471	0.47279744184864125	-0.01862955694781704	-0.07827507042996873	0.5051373572203517	-0.06497074479555454	-0.18870105237856669	0.5137821486163924	-0.06251523517346685	-0.1729772470435093	0.5238934851857819	-0.058774422396097536	-0.15026652214215058	0.5196233163867682	-0.04514821306439676	-0.11014510427492408	0.4880520822530958	-0.07967470569152946	-0.18245383211169475	0.49942623037377	-0.08089073082233977	-0.16841281941993347	0.5137988093003523	-0.08044789944991876	-0.14306242641756037	0.5122965275750011	-0.06423392212905854	-0.10145716220669021	0.4849824166986565	-0.09589510048864403	-0.1708807673337977	0.4938801043901807	-0.09703203565735458	-0.15524303948841522	0.5035203325450127	-0.09552048374152267	-0.13233100791265726	0.5002887725541321	-0.07805982691188318	-0.09600741616978431	0.48783830148614693	-0.12236104906687656	-0.1526902313195875	0.48735770205168305	-0.11451912442611173	-0.13748256081710236	0.4872609861313544	-0.10422515832225981	-0.11918401095970921	0.48259537027232824	-0.08251668164118164	-0.09076117648031407	0.462283081001861	-0.023011742144276925	-0.051989820119430985
44	1.4999999999999936	0.5441893480741292	-0.014554324585599965	-0.14503259456040876	0.5265368255143301	-0.014636700640145883	-0.13032267744774562	0.5039979997592783	-0.011120575726987991	-0.10914584578721426	0.47269578907435295	-0.019162731471139727	-0.07839872661771546	0.5076268056517819	-0.06808211865524433	-0.1879546540454034	0.5157067729909651	-0.06506933988056407	-0.17202865982675047	0.5251667008875346	-0.06057999331256242	-0.1491733461210915	0.5199382214383356	-0.045882108805640864	-0.10954669741506923	0.4899468601110054	-0.08268803436653777	-0.18147822837953534	0.5010588209526357	-0.08339615073012796	-0.16719456997317145	0.5150232687902294	-0.08217664243449191	-0.14164233824856465	0.5126840839808671	-0.06487482653627319	-0.10051663701379177	0.48663590494034126	-0.09855745954763406	-0.16948860080176714	0.49526928897826306	-0.0991461868317175	-0.15367347891672517	0.504586451807344	-0.0969733501869795	-0.1306811054696084	0.5007506412567022	-0.07865563813549548	-0.09484161863429635	0.48883091232233067	-0.12390428467424389	-0.15085340296580835	0.4882294512729316	-0.11587037794776828	-0.13575060232101585	0.48799332839567156	-0.10531174611044064	-0.11760476095968442	0.4830384278099147	-0.0830833447464428	-0.08963637552208203	0.4622830810018609	-0.023011742144276925	-0.051989820119430985
45	1.5333333333333266	0.5435790080026306	-0.015996848772260985	-0.14575998552048575	0.5261262381376666	-0.01580517851849078	-0.1308146154496436	0.5038219134778457	-0.011901920396694243	-0.10945807833559024	0.4726680572402129	-0.019570710684383208	-0.07846587129820176	0.5095515949898617	-0.07044585728048586	-0.18716661654239752	0.517226241571564	-0.06703740597163999	-0.1711203627889138	0.5262335431133268	-0.062031927575111556	-0.14818952028459995	0.5202401248939968	-0.04652093159694504	-0.1089833468445216	0.4914596177051527	-0.08494632246435618	-0.18059381577478462	0.5023682884582301	-0.08531042272576161	-0.16614153798197298	0.5159898980029484	-0.08355051377154632	-0.14043620733083928	0.5129952780214	-0.06542097751836662	-0.0997115208690535	0.4878183131656253	-0.1004521033874739	-0.16834935363902834	0.49624513776517676	-0.1006843553063777	-0.1524140253959527	0.5053200230813574	-0.09807633712530889	-0.12937005272053526	0.5010745193768352	-0.07914943921864193	-0.0938951451389009	0.4893833943843058	-0.12500147963577632	-0.1494867460080894	0.4887282825293867	-0.11686103793331781	-0.13444334089666543	0.4884338939650611	-0.10613623250956336	-0.11639607232228544	0.48332099564606124	-0.08352138114773733	-0.08876800290616277	0.462283081001861	-0.023011742144276925	-0.051989820119430985
46	1.5666666666666598	0.543116168547991	-0.0171262594986199	-0.1462883989833953	0.5258144770108153	-0.01672210690380732	-0.13117257513444386	0.5036923156109883	-0.012521314083492274	-0.10968343102210676	0.4726369393804263	-0.01986904053188676	-0.07851510538183842	0.5108983728102531	-0.07210667906520035	-0.18646781472672197	0.5183236977118848	-0.06843284607474542	-0.17036292412593082	0.5270387035716214	-0.06307377647048229	-0.14739906384849877	0.5205107087400807	-0.04697388659662671	-0.10851699955750332	0.4925445805435418	-0.08644970541109948	-0.1798671223223746	0.5033064323878155	-0.0865921146263749	-0.16530133142392667	0.5167034991688589	-0.08449013111833897	-0.13950385447372457	0.5132725637937947	-0.06581212553135113	-0.09906243126997732	0.48857800741768087	-0.10160263214864873	-0.1674754014218879	0.49688936061345057	-0.10163565314415557	-0.15147789168852543	0.505843139413604	-0.09880174001140912	-0.1284132269271644	0.501351948591665	-0.07948611748925666	-0.0931789145941182	0.48980737951946673	-0.125693144230632	-0.1485169719584689	0.48912617251723245	-0.11751173421786434	-0.13349696905490419	0.4888115461299599	-0.10668590673126688	-0.11551046054249797	0.48356799149110796	-0.08383566059676195	-0.08810143215143817	0.4622830810018609	-0.023011742144276925	-0.051989820119430985
47	1.599999999999993	0.5429146361339566	-0.017877142365470833	-0.14654736870651164	0.5256893233818717	-0.017339263780342562	-0.13134870800168227	0.5036694188137321	-0.012938273877600714	-0.10979470394939556	0.472661990309339	-0.020067762869198313	-0.07852811212579502	0.5118377153805752	-0.07312820847969032	-0.18586305024443478	0.5191225693814984	-0.06930687900780641	-0.16972835646821005	0.5276824963795351	-0.06375329203456359	-0.14675238740227267	0.520797250688256	-0.04726919249594014	-0.10809357277777237	0.4933209979229983	-0.08729738311275903	-0.17928584243401519	0.5040024360563294	-0.08733248735008942	-0.164660328867089	0.5172725213257702	-0.08506408292781426	-0.13881136895921692	0.5135309283180202	-0.06606721035009405	-0.09854640608787901	0.4891589439090114	-0.10221293463196862	-0.1668532693794141	0.4973794795996571	-0.10216301640007308	-0.15080894636069664	0.5062613005771697	-0.09923208959178537	-0.12772858884249777	0.5016113474140126	-0.079700194152585	-0.09263437521499795	0.4902119941573908	-0.12606527767879766	-0.14788289649510677	0.4895090979106801	-0.11788609234439132	-0.13286268131250067	0.48915772932537616	-0.10702140398263843	-0.11490030101591264	0.48378563272249586	-0.08403820500652415	-0.08762766649128956	0.4622830810018608	-0.023011742144276925	-0.051989820119430985
